<svg id="Capa_1" data-name="Capa 1" xmlns="http://www.w3.org/2000/svg" viewBox="0 0 180 180"><defs><style>.cls-1{fill:#fff;}</style></defs><title>Mesa de trabajo 2 copia 2</title><path class="cls-1" d="M94.38,127A4.38,4.38,0,1,1,90,122.56,4.41,4.41,0,0,1,94.38,127Zm-2.12,0a2.26,2.26,0,1,0-4.52,0,2.26,2.26,0,0,0,4.52,0Z"/><path class="cls-1" d="M109,137.25c.49,2.5.9,4.81,1.45,7.08.08.35.83.75,1.28.76,3,.07,6,0,9,0,2.48,0,3.39.89,3.4,3.32,0,2.18,0,4.37,0,6.56s-.94,3.23-3.16,3.23H59c-2.06,0-3.05-1-3.08-3q0-3.61,0-7.22c0-1.93,1-2.9,3-2.92,3.11,0,6.23,0,9.34,0,.9,0,1.37-.16,1.52-1.18.34-2.2.85-4.37,1.32-6.71H18.73c-6.34,0-10.1-3.75-10.1-10.08q0-47.64,0-95.3c0-6.35,3.74-10.12,10-10.12H161.22c6.44,0,10.15,3.73,10.15,10.19q0,47.57,0,95.14c0,6.44-3.73,10.17-10.17,10.17H109Zm57.15-21.08v-1.35q0-41.58,0-83.16c0-3.26-1.49-4.66-4.93-4.66H18.82c-3.56,0-4.94,1.39-4.94,5q0,41.25,0,82.51v1.69Zm0,5.44H13.88c0,1.75,0,3.38,0,5,0,4.13,1.23,5.37,5.36,5.37H160.78c.54,0,1.09,0,1.64,0a3.87,3.87,0,0,0,3.67-3.73C166.18,126.07,166.11,123.89,166.11,121.61ZM74.87,145h30.27c-.48-2.37-.87-4.57-1.4-6.74a1.53,1.53,0,0,0-1.14-.92q-12.61-.07-25.23,0a1.41,1.41,0,0,0-1.09.78C75.74,140.35,75.33,142.65,74.87,145Zm-13.68,7.94H118.8v-2.43H61.19Z"/></svg>