<svg id="Capa_1" data-name="Capa 1" xmlns="http://www.w3.org/2000/svg" viewBox="0 0 180 180"><defs><style>.cls-1{fill:#fff;}</style></defs><title>Mesa de trabajo 2</title><path class="cls-1" d="M28.76,12h91.41a2.31,2.31,0,0,0,.54.23c5.26,1,8.78,4.08,10.29,9.21a39.92,39.92,0,0,1,.83,6.05c10.36,0,15.52,5.27,15.49,15.53a39.49,39.49,0,0,1,5.44.61c6.29,1.6,10,6.53,10,13.16q0,48.82,0,97.65a15,15,0,0,1-1.36,6.15C159,165.74,154.58,168,149,168H69.75c-2.69,0-5.38,0-8.07,0-6.42-.1-11.3-3.86-12.85-10a39.61,39.61,0,0,1-.62-5.53c-4.37.22-8.39-.67-11.6-3.86s-4-7.26-3.84-11.74h-2c-8-.18-13.59-5.53-13.6-13.34q-.09-49.05,0-98.11c0-4.42,1.63-8.22,5.34-10.72C24.38,13.41,26.67,12.85,28.76,12ZM53.61,69.31V70.8q0,41.65,0,83.31c0,5.61,3.16,8.69,8.84,8.69h86.2c5.83,0,9-3.11,9-8.91V69.31ZM48.39,147v-2q0-43.71,0-87.42c0-3.33.59-6.45,2.68-9.16C54,44.57,58,43.16,62.66,43.17H140c.63,0,1.26-.07,1.86-.1.69-6.59-2.61-10.3-9-10.3H46.85c-5.59,0-8.86,3.12-8.86,8.56Q38,90,38,138.66C38,144.55,42.33,148.06,48.39,147Zm-15.61-15.6V41.94A14.88,14.88,0,0,1,34.13,35c2.67-5.2,7.07-7.43,12.78-7.42h79.28c1.1-6.11-2.42-10.38-8.44-10.38q-43.34,0-86.66,0c-5.51,0-8.7,3.19-8.7,8.7q0,48.51,0,97C22.39,128.93,26.6,132.44,32.78,131.41ZM157.53,64c0-3,.22-5.89-.05-8.69-.44-4.44-3.78-6.93-8.83-6.93H62.6a18.7,18.7,0,0,0-2.12.13,7.46,7.46,0,0,0-6.75,6.9c-.16,2.17-.1,4.36-.11,6.54s0,2.05,2,2.05H157.53Z"/><path class="cls-1" d="M77,58.81a2.58,2.58,0,0,1-2.54-2.63,2.47,2.47,0,0,1,2.49-2.5,2.53,2.53,0,0,1,2.65,2.52A2.66,2.66,0,0,1,77,58.81Z"/><path class="cls-1" d="M64,56.17a2.56,2.56,0,0,1-2.44,2.58,2.53,2.53,0,0,1-2.65-2.51,2.45,2.45,0,0,1,2.58-2.56A2.49,2.49,0,0,1,64,56.17Z"/><path class="cls-1" d="M71.75,56.22a2.53,2.53,0,0,1-2.49,2.54,2.66,2.66,0,0,1-2.64-2.58,2.52,2.52,0,0,1,2.67-2.49A2.46,2.46,0,0,1,71.75,56.22Z"/></svg>