<svg id="Capa_1" data-name="Capa 1" xmlns="http://www.w3.org/2000/svg" viewBox="0 0 180 180"><defs><style>.cls-1{fill:#fff;}</style></defs><title>Mesa de trabajo 2 copia</title><path class="cls-1" d="M128.86,76.29q0-22.71,0-45.42a13.63,13.63,0,0,0-.34-3.41c-1.24-4.79-5.12-7.64-10.39-7.64H62c-6.6,0-10.86,4.24-10.86,10.78,0,32.58,0,75.52,0,118.77a13.62,13.62,0,0,0,1.12,5.26c1.22,2.81,3.65,4.63,7.43,5.55l60.48,0,.08,0c5.56-1.34,8.62-5.27,8.62-11.08Q128.86,112.68,128.86,76.29Zm-67,78.9c-3.76,0-5.76-2-5.78-5.68,0-3.44,0-6.88,0-10.31v-3.52c0-.13,0-.25,0-.38h67.8c0,.17,0,.34,0,.51v2.63c0,3.64,0,7.29,0,10.93,0,3.81-2,5.82-5.77,5.82Zm-5.71-25V40.68h67.66v89.47Zm67.74-95.58c0,.31,0,.61,0,.92H56.24l0-1.61a42.38,42.38,0,0,1,.08-5.06,4.71,4.71,0,0,1,4.53-4c.44,0,.88,0,1.32,0H77.32c13.24,0,26.93,0,40.4-.06a6.41,6.41,0,0,1,4.76,1.72A5.9,5.9,0,0,1,123.92,31C123.86,32.19,123.88,33.35,123.89,34.57Z"/><path class="cls-1" d="M95.37,145.54A5.38,5.38,0,1,1,90,140.1,5.4,5.4,0,0,1,95.37,145.54Zm-2.61,0a2.77,2.77,0,1,0-5.54,0,2.77,2.77,0,0,0,5.54,0Z"/></svg>